<svg width="120" height="120" viewBox="0 0 120 120" fill="none" xmlns="http://www.w3.org/2000/svg">
<g clip-path="url(#clip0_8_6)">
<path d="M56.012 112H63.988H71.994H80V0H71.994H63.988H56.012H48.006H40V112H48.006H56.012Z" fill="white"/>
<path d="M39.99 15.99V8.01001H32.01H24V15.99H32.01H39.99Z" fill="white"/>
<path d="M24 15.99H15.99V24H24V15.99Z" fill="white"/>
<path d="M106 32.015V24H8V32.015V40H106V32.015Z" fill="white"/>
<path d="M112 63.988V56.012V48.006V40H0V48.006V56.012V63.988V71.994V80H112V71.994V63.988Z" fill="white"/>
<path d="M87.99 15.99H96V8.01001H87.99H80.01V15.99H87.99Z" fill="white"/>
<path d="M104 16H24V24H104V16Z" fill="white"/>
<path d="M104.01 39.99H111.99V32.01V24H104.01V32.01V39.99Z" fill="white"/>
<path d="M63.99 111.99H56.01H48H39.99V120H48H56.01H63.99H72H80.01V111.99H72H63.99Z" fill="white"/>
<path d="M80.01 104.01V111.99H87.99H96V104.01H87.99H80.01Z" fill="white"/>
<path d="M104 96H24V104H104V96Z" fill="white"/>
<path d="M104.01 87.99V96H111.99V87.99V80.01H104.01V87.99Z" fill="white"/>
<path d="M32.01 104.01H24V111.99H32.01H39.99V104.01H32.01Z" fill="white"/>
<path d="M24 96H15.99V104.01H24V96Z" fill="white"/>
<path d="M109 80H8V87.985V96H109V87.985V80Z" fill="white"/>
<path d="M111.99 39.99V48V56.01V63.99V72V80.01H120V72V63.99V56.01V48V39.99H111.99Z" fill="white"/>
<path d="M56.01 8.01H63.99H72H80.01V0H72H63.99H56.01H48H39.99V8.01H48H56.01Z" fill="black"/>
<path d="M39.99 15.99V8.01001H32.01H24V15.99H32.01H39.99Z" fill="black"/>
<path d="M24 15.99H15.99V24H24V15.99Z" fill="black"/>
<path d="M15.99 32.01V24H8.01001V32.01V39.99H15.99V32.01Z" fill="black"/>
<path d="M64 48.1942V40.3883V32.6117V24.8058V17H56V24.8058V32.6117V40.3883V48.1942V56H64V48.1942Z" fill="black"/>
<path d="M56 56H47V64H56V56Z" fill="black"/>
<path d="M71.6763 56H64V64H71.6763H79.3525H87V56H79.3525H71.6763Z" fill="black"/>
<path d="M8.01 63.99V56.01V48V39.99H0V48V56.01V63.99V72V80.01H8.01V72V63.99Z" fill="black"/>
<path d="M64 64H56V73H64V64Z" fill="black"/>
<path d="M87.99 15.99H96V8.01001H87.99H80.01V15.99H87.99Z" fill="black"/>
<path d="M104.01 15.99H96V24H104.01V15.99Z" fill="black"/>
<path d="M104.01 39.99H111.99V32.01V24H104.01V32.01V39.99Z" fill="black"/>
<path d="M63.99 111.99H56.01H48H39.99V120H48H56.01H63.99H72H80.01V111.99H72H63.99Z" fill="black"/>
<path d="M80.01 104.01V111.99H87.99H96V104.01H87.99H80.01Z" fill="black"/>
<path d="M104.01 96H96V104.01H104.01V96Z" fill="black"/>
<path d="M104.01 87.99V96H111.99V87.99V80.01H104.01V87.99Z" fill="black"/>
<path d="M32.01 104.01H24V111.99H32.01H39.99V104.01H32.01Z" fill="black"/>
<path d="M24 96H15.99V104.01H24V96Z" fill="black"/>
<path d="M15.99 80.01H8.01001V87.99V96H15.99V87.99V80.01Z" fill="black"/>
<path d="M111.99 39.99V48V56.01V63.99V72V80.01H120V72V63.99V56.01V48V39.99H111.99Z" fill="black"/>
</g>
<defs>
<clipPath id="clip0_8_6">
<rect width="120" height="120" fill="white"/>
</clipPath>
</defs>
</svg>